# AST/ASF file generated using VICON BodyLanguage
# -----------------------------------------------
:version 1.10
:name VICON
:units
  mass 1.0
  length 0.45
  angle deg
:documentation
   .ast/.asf automatically generated from VICON data using
   VICON BodyBuilder and BodyLanguage model FoxedUp or BRILLIANT.MOD
:root
   order TX TY TZ RX RY RZ
   axis XYZ
   position 0 0 0  
   orientation 0 0 0 
:bonedata
  begin
     id 1 
     name lhipjoint
     direction 0.716248 -0.617586 0.324924 
     length 2.63557 
     axis 0 0 0  XYZ
  end
  begin
     id 2 
     name lfemur
     direction 0.34202 -0.939693 0  
     length 7.01235  
     axis 0 0 20  XYZ
    dof rx ry rz
    limits (-160.0 20.0)
           (-70.0 70.0)
           (-60.0 70.0)
  end
  begin
     id 3 
     name ltibia
     direction 0.34202 -0.939693 0   
     length 8.14348   
     axis 0 0 20   XYZ
    dof rx
    limits (-10.0 170.0)
  end
  begin
     id 4 
     name lfoot
     direction 0.0982064 -0.26982 0.95789   
     length 1.99077   
     axis -90 7.62852e-016 20   XYZ
    dof rx rz
    limits (-45.0 90.0)
           (-70.0 20.0)
  end
  begin
     id 5 
     name ltoes
     direction 1.53511e-011 -4.21891e-011 1   
     length 0.99735   
     axis -90 7.62852e-016 20   XYZ
    dof rx
    limits (-90.0 20.0)
  end
  begin
     id 6 
     name rhipjoint
     direction -0.687828 -0.642391 0.337975   
     length 2.5338  
     axis 0 0 0  XYZ 
  end
  begin
     id 7 
     name rfemur
     direction -0.34202 -0.939693 0   
     length 6.90199   
     axis 0 0 -20   XYZ
    dof rx ry rz
    limits (-160.0 20.0)
           (-70.0 70.0)
           (-70.0 60.0)
  end
  begin
     id 8 
     name rtibia
     direction -0.34202 -0.939693 0   
     length 8.07725   
     axis 0 0 -20   XYZ
    dof rx
    limits (-10.0 170.0)
 end
 begin
     id 9 
     name rfoot
     direction -0.0912384 -0.250675 0.963762   
     length 2.11621  
     axis -90 -7.62852e-016 -20   XYZ
    dof rx rz
    limits (-45.0 90.0)
           (-20.0 70.0)
  end
  begin
     id 10 
     name rtoes
     direction -1.5359e-011 -4.21894e-011 1   
     length 1.06031   
     axis -90 -7.62852e-016 -20   XYZ
    dof rx
    limits (-90.0 20.0)
  end
  begin
     id 11 
     name lowerback
     direction -0.0403572 0.987953 -0.149396   
     length 2.05637   
     axis 0 0 0   XYZ
    dof rx ry rz
    limits (-20.0 45.0)
           (-30.0 30.0)
           (-30.0 30.0)
  end
  begin
     id 12 
     name upperback
     direction -0.00512151 0.997598 0.0690792   
     length 2.01086   
     axis 0 0 0   XYZ
    dof rx ry rz
    limits (-20.0 45.0)
           (-30.0 30.0)
           (-30.0 30.0)
  end
  begin
     id 13 
     name thorax
     direction 0.0136133 0.989392 0.14463   
     length 2.09035   
     axis 0 0 0   XYZ
    dof rx ry rz
    limits (-20.0 45.0)
           (-30.0 30.0)
           (-30.0 30.0)
  end
  begin
     id 14 
     name lowerneck
     direction 0.0250714 0.992811 0.11704   
     length 1.70806   
     axis 0 0 0   XYZ
    dof rx ry rz
    limits (-20.0 45.0)
           (-30.0 30.0)
           (-30.0 30.0)
  end
  begin
     id 15 
     name upperneck
     direction -0.0519205 0.998394 -0.0226787   
     length 1.6689   
     axis 0 0 0   XYZ
    dof rx ry rz
    limits (-20.0 45.0)
           (-30.0 30.0)
           (-30.0 30.0)
  end
  begin
     id 16
     name head
     direction -0.0201693 0.999547 -0.0223192  
     length 1.83412  
     axis 0 0 0   XYZ
    dof rx ry rz
    limits (-20.0 45.0)
           (-30.0 30.0)
           (-30.0 30.0)
  end
  begin
     id 17 
     name lclavicle
     direction 0.89585 0.444077 -0.0157448  
     length 3.39587  
     axis 0 0 0   XYZ
    dof ry rz
    limits (-20.0 10.0)
           (0.0 20.0)
  end
  begin
     id 18 
     name lhumerus
     direction 1 -4.48956e-011 1.99132e-028   
     length 5.79199   
     axis 180 -30 -90   XYZ
    dof rx ry rz
    limits (-60.0 90.0)
           (-90.0 90.0)
           (-90.0 90.0)
  end
  begin
     id 19
     name lradius
     direction 1 -4.48974e-011 8.72912e-028   
     length 3.49908   
     axis 180 -30 -90   XYZ
    dof rx
    limits (-10.0 170.0)
  end
  begin
     id 20
     name lwrist
     direction 1 -4.48994e-011 4.76442e-027   
     length 1.74954   
     axis -3.27502e-015 90 90   XYZ
    dof ry
    limits (-180.0 0.0)
 end
  begin
     id 21 
     name lhand
     direction 1 -4.48945e-011 9.531e-027   
     length 0.593861   
     axis -6.08098e-015 90 90   XYZ
    dof rx rz
    limits (-90.0 90.0)
           (-45.0 45.0)
  end
  begin
     id 22 
     name lfingers
     direction 1 -4.48945e-011 1.9062e-026   
     length 0.478786   
     axis -1.21619e-014 90 90   XYZ
    dof rx
    limits (0.0 90.0)
  end
  begin
     id 23
     name lthumb
     direction 0.707107 -6.34904e-011 0.707107   
     length 0.687444   
     axis -90 45 -9.86923e-015   XYZ
    dof rx rz
    limits (-45.0 45.0)
           (-45.0 45.0)
  end
  begin
     id 24 
     name rclavicle
     direction -0.940466 0.338394 0.0318182   
     length 3.51226  
     axis 0 0 0   XYZ 
    dof ry rz
    limits (-10.0 20.0)
           (-20.0 0.0)
  end
  begin
     id 25 
     name rhumerus
     direction -1 -4.48976e-011 2.0905e-027  
     length 5.73799   
     axis 180 30 90   XYZ
    dof rx ry rz
    limits (-90.0 60.0)
           (-90.0 90.0)
           (-90.0 90.0)
  end
  begin
     id 26 
     name rradius
     direction -1 -4.48968e-011 -9.39692e-029   
     length 3.57916   
     axis 180 30 90   XYZ
    dof rx
    limits (-10.0 170.0)
  end
  begin
     id 27 
     name rwrist
     direction -1 -4.48959e-011 4.7652e-027   
     length 1.78958   
     axis -3.27502e-015 -90 -90   XYZ
    dof ry
    limits (-180.0 0.0)
  end
  begin
     id 28
     name rhand
     direction -1 -4.49042e-011 9.5267e-027   
     length 0.615577   
     axis -6.08098e-015 -90 -90   XYZ
    dof rx rz
    limits (-90.0 90.0)
           (-45.0 45.0)
  end
  begin
     id 29
     name rfingers
     direction -1 -4.48935e-011 1.90629e-026   
     length 0.496294   
     axis -1.21619e-014 -90 -90   XYZ
    dof rx
    limits (0.0 90.0)
  end
  begin
     id 30
     name rthumb
     direction -0.707107 -6.34977e-011 0.707107   
     length 0.712582   
     axis -90 -45 9.86923e-015   XYZ
    dof rx rz
    limits (-45.0 45.0)
           (-45.0 45.0)
  end
:hierarchy
  begin
    root lhipjoint rhipjoint lowerback
    lhipjoint lfemur
    lfemur ltibia
    ltibia lfoot
    lfoot ltoes
    rhipjoint rfemur
    rfemur rtibia
    rtibia rfoot
    rfoot rtoes
    lowerback upperback
    upperback thorax
    thorax lowerneck lclavicle rclavicle
    lowerneck upperneck
    upperneck head
    lclavicle lhumerus
    lhumerus lradius
    lradius lwrist
    lwrist lhand lthumb
    lhand lfingers
    rclavicle rhumerus
    rhumerus rradius
    rradius rwrist
    rwrist rhand rthumb
    rhand rfingers
  end

#!OML:ASF H:\Terrain\Patient Classification 1\PaulMetrics\March17Take5\PaulMetrics.ASF
:FULLY-SPECIFIED
:DEGREES
2030
root 14.6964 17.4959 -15.655 -1.93392 -61.5657 10.3567
lowerback 1.87228 0.942507 -6.35735
upperback -2.46154 0.971958 -1.05931
thorax -3.69189 0.631237 2.41598
lowerneck -6.63735 -2.47379 0.0972095
upperneck 7.87522 -3.40892 0.72475
head 3.74947 -1.65763 0.0407358
rclavicle 1.41603e-014 -1.15295e-014
rhumerus 21.9886 28.0392 -53.3584
rradius 97.2016
rwrist 29.9707
rhand -40.0388 -23.9948
rfingers 7.12502
rthumb -13.0052 -53.5694
lclavicle 1.41603e-014 -1.15295e-014
lhumerus -34.9481 -1.39256 78.7119
lradius 33.7983
lwrist 15.5047
lhand -10.8381 -22.0091
lfingers 7.12502
lthumb 15.1764 7.41432
rfemur -13.3752 5.9223 12.778
rtibia 26.3606
rfoot -19.432 -17.5631
rtoes -0.880684
lfemur -13.224 -5.48816 -15.2875
ltibia 19.5522
lfoot -15.5037 15.7155
ltoes -4.77067
2031
root 14.692 17.4835 -15.6593 -2.35873 -61.5839 10.844
lowerback 1.81844 1.01145 -6.53113
upperback -2.44484 1.05576 -1.21318
thorax -3.65303 0.672936 2.35009
lowerneck -6.51803 -2.52796 0.185482
upperneck 7.82146 -3.49535 0.787919
head 3.70687 -1.69583 0.0437799
rclavicle 6.59173e-014 -3.47873e-016
rhumerus 22.2355 26.7349 -53.6806
rradius 97.3694
rwrist 29.4812
rhand -39.6655 -24.4613
rfingers 7.12502
rthumb -12.6453 -54.0585
lclavicle 6.59173e-014 -3.47873e-016
lhumerus -34.8291 -1.47092 78.7058
lradius 33.7434
lwrist 15.2013
lhand -11.0985 -22.3867
lfingers 7.12502
lthumb 14.9256 7.05556
rfemur -13.4476 5.35617 12.6634
rtibia 26.38
rfoot -18.4521 -18.2694
rtoes -7.74828
lfemur -13.32 -5.47277 -15.5247
ltibia 19.6865
lfoot -15.4199 15.8174
ltoes -5.73505
2032
root 14.6879 17.4841 -15.6706 -2.97232 -61.5692 11.5964
lowerback 1.77555 1.00956 -6.98791
upperback -2.4437 1.03518 -1.30957
thorax -3.63566 0.671817 2.50658
lowerneck -6.28816 -2.45007 0.232121
upperneck 7.61102 -3.39979 0.886341
head 3.58876 -1.64502 0.0781251
rclavicle -2.61239e-014 1.81639e-014
rhumerus 22.5907 25.63 -54.0651
rradius 97.4095
rwrist 28.5834
rhand -39.9757 -24.86
rfingers 7.12502
rthumb -12.9443 -54.4385
lclavicle -2.61239e-014 1.81639e-014
lhumerus -34.7489 -1.51206 78.744
lradius 33.8141
lwrist 15.285
lhand -11.3039 -22.2283
lfingers 7.12502
lthumb 14.7277 7.22849
rfemur -13.636 5.37374 12.2627
rtibia 26.5175
rfoot -18.7253 -18.1647
rtoes -6.96655
lfemur -13.3135 -5.45578 -15.8663
ltibia 19.6043
lfoot -15.4119 15.803
ltoes -6.08781
2033
root 14.6879 17.4765 -15.6815 -3.09058 -61.4875 11.7615
lowerback 1.82144 0.927324 -7.28043
upperback -2.45495 0.914279 -1.20223
thorax -3.67069 0.622674 2.7865
lowerneck -6.07604 -2.33224 0.0436658
upperneck 7.39239 -3.23155 1.03208
head 3.47711 -1.56304 0.17178
rclavicle 6.12723e-014 5.41688e-015
rhumerus 22.8877 24.732 -54.2965
rradius 97.5189
rwrist 27.2783
rhand -41.1043 -25.4472
rfingers 7.12502
rthumb -14.0321 -54.9536
lclavicle 6.12723e-014 5.41688e-015
lhumerus -34.7705 -1.44174 78.8925
lradius 34.0022
lwrist 15.5234
lhand -11.2072 -21.851
lfingers 7.12502
lthumb 14.8209 7.59899
rfemur -13.7558 5.33619 12.2272
rtibia 26.5972
rfoot -18.5782 -18.3228
rtoes -7.11971
lfemur -13.4313 -5.29727 -15.9118
ltibia 19.7093
lfoot -15.5081 15.4058
ltoes -5.38752
2034
root 14.6867 17.4685 -15.6857 -2.32918 -61.2855 10.9313
lowerback 1.83463 0.814537 -7.01363
upperback -2.47172 0.781277 -0.99167
thorax -3.67912 0.554558 2.863
lowerneck -5.9191 -2.26366 -0.154041
upperneck 7.27407 -3.12767 1.13724
head 3.41084 -1.51413 0.248491
rclavicle 9.83674e-015 4.62174e-015
rhumerus 22.9306 23.6482 -54.6766
rradius 97.7665
rwrist 26.202
rhand -41.4738 -26.2836
rfingers 7.12502
rthumb -14.3882 -55.7649
lclavicle 9.83674e-015 4.62174e-015
lhumerus -34.8439 -1.31344 79.0197
lradius 34.2852
lwrist 15.7639
lhand -10.9269 -21.5493
lfingers 7.12502
lthumb 15.0909 7.8806
rfemur -13.7025 5.02185 12.7272
rtibia 26.5835
rfoot -18.416 -18.2868
rtoes -6.66127
lfemur -13.6375 -5.18292 -15.4764
ltibia 19.9024
lfoot -15.6007 14.851
ltoes -4.00563
2035
root 14.6855 17.4656 -15.6856 -1.92159 -61.0564 10.4109
lowerback 1.897 0.69956 -6.76365
upperback -2.45765 0.637028 -0.901602
thorax -3.68119 0.477931 2.82407
lowerneck -6.03448 -2.20246 -0.0659904
upperneck 7.45503 -3.04452 0.986802
head 3.49094 -1.47538 0.185453
rclavicle 1.21911e-014 2.88238e-015
rhumerus 22.8835 22.357 -55.3267
rradius 98.0176
rwrist 25.3685
rhand -40.9252 -27.2517
rfingers 7.12502
rthumb -13.8596 -56.77
lclavicle 1.21911e-014 2.88238e-015
lhumerus -34.8952 -1.04826 78.98
lradius 34.4665
lwrist 15.5697
lhand -10.8485 -21.8173
lfingers 7.12502
lthumb 15.1664 7.60693
rfemur -13.446 4.8426 12.9982
rtibia 26.3852
rfoot -18.492 -18.1018
rtoes -5.63218
lfemur -13.8718 -5.18056 -15.2313
ltibia 20.3635
lfoot -15.4994 14.6293
ltoes -4.80349
2036
root 14.6811 17.4558 -15.6845 -1.96879 -60.9664 10.3276
lowerback 2.00599 0.637433 -6.78242
upperback -2.43873 0.547667 -0.850685
thorax -3.71515 0.435699 2.89135
lowerneck -6.28873 -2.13474 0.119808
upperneck 7.78497 -2.95327 0.707754
head 3.64685 -1.43429 0.0605856
rclavicle -5.27991e-014 1.17283e-014
rhumerus 22.7023 21.041 -55.9192
rradius 98.2163
rwrist 24.2957
rhand -40.7754 -28.3973
rfingers 7.12502
rthumb -13.7151 -57.9253
lclavicle -5.27991e-014 1.17283e-014
lhumerus -34.9666 -0.680679 78.9286
lradius 34.6278
lwrist 15.172
lhand -10.7736 -22.1797
lfingers 7.12502
lthumb 15.2386 7.23902
rfemur -13.1804 4.59634 13.1733
rtibia 26.1925
rfoot -17.3741 -18.9002
rtoes -12.1681
lfemur -13.9631 -5.18951 -15.214
ltibia 20.7355
lfoot -15.3031 14.8059
ltoes -7.02176
2037
root 14.676 17.4507 -15.6835 -1.67515 -60.8297 10.004
lowerback 1.99465 0.606364 -6.70211
upperback -2.47148 0.511675 -0.779573
thorax -3.73865 0.418437 2.92208
lowerneck -6.144 -2.09226 0.066522
upperneck 7.74788 -2.8966 0.776255
head 3.60749 -1.40576 0.097376
rclavicle 5.88061e-014 -1.13307e-014
rhumerus 22.3349 19.6746 -56.4651
rradius 98.3624
rwrist 23.0713
rhand -40.9536 -28.9854
rfingers 7.12502
rthumb -13.8869 -58.5018
lclavicle 5.88061e-014 -1.13307e-014
lhumerus -35.0664 -0.63986 79.0275
lradius 34.9866
lwrist 15.2219
lhand -10.672 -22.2239
lfingers 7.12502
lthumb 15.3365 7.18734
rfemur -13.1094 4.21486 13.469
rtibia 26.1243
rfoot -15.8946 -19.6529
rtoes -19.3879
lfemur -14.0813 -5.19825 -15.0579
ltibia 20.8586
lfoot -15.1575 14.9061
ltoes -8.83266
2038
root 14.6702 17.4537 -15.6832 -1.82109 -60.5187 10.2923
lowerback 1.83193 0.496596 -6.92253
upperback -2.49009 0.367491 -0.813123
thorax -3.65417 0.349465 3.01916
lowerneck -5.87377 -2.01913 0.0874416
upperneck 7.52216 -2.79693 0.782025
head 3.47524 -1.35744 0.105314
rclavicle 1.75241e-014 1.02374e-014
rhumerus 22.0478 18.2742 -57.1581
rradius 98.4857
rwrist 22.0323
rhand -40.8547 -29.1382
rfingers 7.12502
rthumb -13.7916 -58.6611
lclavicle 1.75241e-014 1.02374e-014
lhumerus -35.1074 -0.812837 79.1264
lradius 35.3448
lwrist 15.6655
lhand -10.7109 -22.4631
lfingers 7.12502
lthumb 15.299 6.95103
rfemur -13.1125 4.1227 13.2104
rtibia 26.1674
rfoot -16.6224 -19.3562
rtoes -16.5845
lfemur -14.1564 -5.33652 -15.2263
ltibia 20.7882
lfoot -15.3643 14.8772
ltoes -8.0418
2039
root 14.6651 17.4552 -15.6837 -2.2359 -60.1757 10.7461
lowerback 1.8362 0.397691 -7.24095
upperback -2.4836 0.221732 -0.851774
thorax -3.63836 0.283835 3.16451
lowerneck -5.76799 -1.96282 0.0927528
upperneck 7.38198 -2.71243 0.700644
head 3.40411 -1.31948 0.0840175
rclavicle -7.25378e-014 2.38542e-015
rhumerus 21.6491 16.8195 -57.8949
rradius 98.6355
rwrist 20.877
rhand -40.7443 -29.8717
rfingers 7.12502
rthumb -13.6852 -59.4017
lclavicle -7.25378e-014 2.38542e-015
lhumerus -35.1301 -1.09102 79.2842
lradius 35.716
lwrist 16.1077
lhand -10.7216 -22.5175
lfingers 7.12502
lthumb 15.2887 6.89739
rfemur -13.0285 4.15016 12.8707
rtibia 26.308
rfoot -17.7318 -19.167
rtoes -12.6335
lfemur -14.0159 -5.53995 -15.4962
ltibia 20.5463
lfoot -15.4981 14.8142
ltoes -6.46928
2040
root 14.657 17.4631 -15.691 -2.49306 -59.8952 11.0363
lowerback 1.90126 0.446932 -7.48473
upperback -2.50759 0.267865 -0.921272
thorax -3.70837 0.314744 3.22567
lowerneck -5.91873 -2.03834 -0.0814722
upperneck 7.58932 -2.81985 0.918599
head 3.5129 -1.36765 0.177447
rclavicle -8.09364e-014 1.39149e-015
rhumerus 20.8988 15.1109 -58.5627
rradius 98.7537
rwrist 19.6246
rhand -40.8631 -30.954
rfingers 7.12502
rthumb -13.7997 -60.4763
lclavicle -8.09364e-014 1.39149e-015
lhumerus -35.1761 -1.80493 79.5981
lradius 36.2099
lwrist 16.3897
lhand -10.9755 -22.1972
lfingers 7.12502
lthumb 15.0441 7.23626
rfemur -13.0491 4.32905 12.697
rtibia 26.4708
rfoot -18.1703 -19.3785
rtoes -10.9918
lfemur -13.9241 -5.67081 -15.6533
ltibia 20.2403
lfoot -15.1805 14.5631
ltoes -6.30316
2041
root 14.6456 17.4663 -15.6984 -2.41705 -59.6186 11.0454
lowerback 1.8445 0.459591 -7.56565
upperback -2.5599 0.279767 -1.00993
thorax -3.73292 0.322971 3.17803
lowerneck -6.25586 -2.14394 -0.136864
upperneck 8.0874 -2.98573 1.13832
head 3.76004 -1.43909 0.244094
rclavicle -1.339e-014 7.15625e-015
rhumerus 20.1166 13.4281 -59.3084
rradius 98.8529
rwrist 18.5726
rhand -40.7718 -32.04
rfingers 7.12502
rthumb -13.7117 -61.5682
lclavicle -1.339e-014 7.15625e-015
lhumerus -35.2071 -2.31272 79.7196
lradius 36.5485
lwrist 16.5962
lhand -11.3599 -22.0598
lfingers 7.12502
lthumb 14.6738 7.40098
rfemur -13.129 4.41628 12.6819
rtibia 26.5489
rfoot -18.7917 -19.5806
rtoes -9.27513
lfemur -13.9695 -5.72752 -15.6435
ltibia 20.0051
lfoot -14.8855 14.2917
ltoes -5.90899
2042
root 14.6353 17.4648 -15.7006 -1.95643 -59.2396 10.5729
lowerback 1.77737 0.331292 -7.41886
upperback -2.58673 0.120658 -0.968767
thorax -3.70352 0.240312 3.14719
lowerneck -6.3833 -2.16755 -0.0914232
upperneck 8.24479 -3.02309 1.11467
head 3.83976 -1.456 0.22387
rclavicle -1.90647e-014 -6.60959e-015
rhumerus 19.615 12.0495 -60.0847
rradius 98.8136
rwrist 17.6116
rhand -40.673 -32.9254
rfingers 7.12502
rthumb -13.6164 -62.46
lclavicle -1.90647e-014 -6.60959e-015
lhumerus -35.1723 -2.1022 79.6478
lradius 36.696
lwrist 16.5539
lhand -11.4578 -22.1387
lfingers 7.12502
lthumb 14.5794 7.32894
rfemur -13.0736 4.14639 12.9554
rtibia 26.5493
rfoot -19.2235 -19.7157
rtoes -9.14146
lfemur -14.0595 -5.73986 -15.4033
ltibia 19.8657
lfoot -14.411 14.1573
ltoes -7.38384
2043
root 14.6267 17.4756 -15.7056 -1.62816 -58.9944 10.2066
lowerback 1.72391 0.255606 -7.40884
upperback -2.56827 0.0307721 -0.860138
thorax -3.64397 0.195082 3.25916
lowerneck -6.13074 -2.10022 -0.0550075
upperneck 7.901 -2.91653 0.978057
head 3.66469 -1.4104 0.183117
rclavicle -4.21392e-014 9.74045e-015
rhumerus 19.1664 10.7119 -60.6945
rradius 98.6594
rwrist 16.8915
rhand -41.0201 -33.7093
rfingers 7.12502
rthumb -13.951 -63.2212
lclavicle -4.21392e-014 9.74045e-015
lhumerus -35.1085 -1.95341 79.706
lradius 36.9556
lwrist 16.5981
lhand -11.557 -21.968
lfingers 7.12502
lthumb 14.4839 7.50652
rfemur -12.9354 4.23512 13.1191
rtibia 26.4894
rfoot -19.6984 -19.4341
rtoes -6.81316
lfemur -14.1431 -5.7211 -15.209
ltibia 19.854
lfoot -14.135 14.0268
ltoes -8.5676
